o gnb_mast
usemtl Metal
v 120.000000000 18.219999313 0.000000000
v 120.000000000 18.219999313 10.000000000
v 120.042922974 18.215772629 0.000000000
v 120.042922974 18.215772629 10.000000000
v 120.084190369 18.203252792 0.000000000
v 120.084190369 18.203252792 10.000000000
v 120.122222900 18.182922363 0.000000000
v 120.122222900 18.182922363 10.000000000
v 120.155563354 18.155563354 0.000000000
v 120.155563354 18.155563354 10.000000000
v 120.182922363 18.122224808 0.000000000
v 120.182922363 18.122224808 10.000000000
v 120.203254700 18.084190369 0.000000000
v 120.203254700 18.084190369 10.000000000
v 120.215774536 18.042919159 0.000000000
v 120.215774536 18.042919159 10.000000000
v 120.220001221 18.000000000 0.000000000
v 120.220001221 18.000000000 10.000000000
v 120.215774536 17.957080841 0.000000000
v 120.215774536 17.957080841 10.000000000
v 120.203254700 17.915809631 0.000000000
v 120.203254700 17.915809631 10.000000000
v 120.182922363 17.877775192 0.000000000
v 120.182922363 17.877775192 10.000000000
v 120.155563354 17.844436646 0.000000000
v 120.155563354 17.844436646 10.000000000
v 120.122222900 17.817077637 0.000000000
v 120.122222900 17.817077637 10.000000000
v 120.084190369 17.796747208 0.000000000
v 120.084190369 17.796747208 10.000000000
v 120.042922974 17.784227371 0.000000000
v 120.042922974 17.784227371 10.000000000
v 120.000000000 17.780000687 0.000000000
v 120.000000000 17.780000687 10.000000000
v 119.957077026 17.784227371 0.000000000
v 119.957077026 17.784227371 10.000000000
v 119.915809631 17.796747208 0.000000000
v 119.915809631 17.796747208 10.000000000
v 119.877777100 17.817077637 0.000000000
v 119.877777100 17.817077637 10.000000000
v 119.844436646 17.844436646 0.000000000
v 119.844436646 17.844436646 10.000000000
v 119.817077637 17.877775192 0.000000000
v 119.817077637 17.877775192 10.000000000
v 119.796745300 17.915809631 0.000000000
v 119.796745300 17.915809631 10.000000000
v 119.784225464 17.957080841 0.000000000
v 119.784225464 17.957080841 10.000000000
v 119.779998779 18.000000000 0.000000000
v 119.779998779 18.000000000 10.000000000
v 119.784225464 18.042919159 0.000000000
v 119.784225464 18.042919159 10.000000000
v 119.796745300 18.084190369 0.000000000
v 119.796745300 18.084190369 10.000000000
v 119.817077637 18.122224808 0.000000000
v 119.817077637 18.122224808 10.000000000
v 119.844436646 18.155563354 0.000000000
v 119.844436646 18.155563354 10.000000000
v 119.877777100 18.182922363 0.000000000
v 119.877777100 18.182922363 10.000000000
v 119.915809631 18.203252792 0.000000000
v 119.915809631 18.203252792 10.000000000
v 119.957077026 18.215772629 0.000000000
v 119.957077026 18.215772629 10.000000000
vn -0.000000404 0.727884829 -0.685699403
vn 0.000000402 0.727887213 0.685696840
vn 0.142006665 0.713917673 -0.685678959
vn 0.142004818 0.713904321 0.685693324
vn 0.278548926 0.672478020 -0.685699463
vn 0.278554410 0.672491491 0.685684144
vn 0.404399246 0.605226755 -0.685683489
vn 0.404391438 0.605213881 0.685699463
vn 0.514692485 0.514697909 -0.685695052
vn 0.514687300 0.514700532 0.685697019
vn 0.605170608 0.404410541 -0.685726404
vn 0.605214357 0.404390723 0.685699522
vn 0.672508299 0.278539658 -0.685673535
vn 0.672498763 0.278557330 0.685675740
vn 0.713921487 0.142008901 -0.685674608
vn 0.713904440 0.142003760 0.685693324
vn 0.727884829 0.000000404 -0.685699463
vn 0.727887154 -0.000000402 0.685696900
vn 0.713918328 -0.142006263 -0.685678363
vn 0.713898361 -0.142004132 0.685699582
vn 0.672509074 -0.278537899 -0.685673535
vn 0.672502697 -0.278561413 0.685670257
vn 0.605224073 -0.404400200 -0.685685337
vn 0.605213821 -0.404391557 0.685699522
vn 0.514684200 -0.514700651 -0.685699224
vn 0.514686942 -0.514700890 0.685696959
vn 0.404408276 -0.605211556 -0.685691595
vn 0.404390872 -0.605214238 0.685699522
vn 0.278549731 -0.672477722 -0.685699463
vn 0.278558046 -0.672502398 0.685671866
vn 0.142005965 -0.713911831 -0.685685217
vn 0.142002881 -0.713898659 0.685699582
vn 0.000000404 -0.727884829 -0.685699403
vn -0.000000402 -0.727887213 0.685696840
vn -0.142006665 -0.713917673 -0.685678959
vn -0.142004818 -0.713904321 0.685693324
vn -0.278548926 -0.672478020 -0.685699463
vn -0.278554410 -0.672491431 0.685684085
vn -0.404399246 -0.605226755 -0.685683489
vn -0.404391438 -0.605213881 0.685699463
vn -0.514692485 -0.514697909 -0.685695052
vn -0.514687300 -0.514700532 0.685697019
vn -0.605170608 -0.404410541 -0.685726404
vn -0.605214357 -0.404390723 0.685699522
vn -0.672508299 -0.278539658 -0.685673535
vn -0.672498763 -0.278557330 0.685675740
vn -0.713921487 -0.142008901 -0.685674608
vn -0.713904440 -0.142003760 0.685693324
vn -0.727884829 -0.000000404 -0.685699463
vn -0.727887154 0.000000402 0.685696900
vn -0.713918328 0.142006263 -0.685678363
vn -0.713898361 0.142004132 0.685699582
vn -0.672509074 0.278537899 -0.685673535
vn -0.672502697 0.278561413 0.685670197
vn -0.605224073 0.404400200 -0.685685337
vn -0.605213821 0.404391557 0.685699522
vn -0.514684200 0.514700651 -0.685699224
vn -0.514686942 0.514700890 0.685696959
vn -0.404408276 0.605211556 -0.685691595
vn -0.404390872 0.605214238 0.685699522
vn -0.278549731 0.672477722 -0.685699463
vn -0.278558075 0.672502398 0.685671866
vn -0.142005965 0.713911831 -0.685685217
vn -0.142002881 0.713898659 0.685699582
f 2//2 3//3 1//1
f 4//4 5//5 3//3
f 6//6 7//7 5//5
f 8//8 9//9 7//7
f 10//10 11//11 9//9
f 12//12 13//13 11//11
f 14//14 15//15 13//13
f 16//16 17//17 15//15
f 18//18 19//19 17//17
f 20//20 21//21 19//19
f 22//22 23//23 21//21
f 24//24 25//25 23//23
f 26//26 27//27 25//25
f 28//28 29//29 27//27
f 30//30 31//31 29//29
f 32//32 33//33 31//31
f 34//34 35//35 33//33
f 36//36 37//37 35//35
f 38//38 39//39 37//37
f 40//40 41//41 39//39
f 42//42 43//43 41//41
f 44//44 45//45 43//43
f 46//46 47//47 45//45
f 48//48 49//49 47//47
f 50//50 51//51 49//49
f 52//52 53//53 51//51
f 54//54 55//55 53//53
f 56//56 57//57 55//55
f 58//58 59//59 57//57
f 60//60 61//61 59//59
f 38//38 22//22 6//6
f 62//62 63//63 61//61
f 64//64 1//1 63//63
f 31//31 47//47 63//63
f 2//2 4//4 3//3
f 4//4 6//6 5//5
f 6//6 8//8 7//7
f 8//8 10//10 9//9
f 10//10 12//12 11//11
f 12//12 14//14 13//13
f 14//14 16//16 15//15
f 16//16 18//18 17//17
f 18//18 20//20 19//19
f 20//20 22//22 21//21
f 22//22 24//24 23//23
f 24//24 26//26 25//25
f 26//26 28//28 27//27
f 28//28 30//30 29//29
f 30//30 32//32 31//31
f 32//32 34//34 33//33
f 34//34 36//36 35//35
f 36//36 38//38 37//37
f 38//38 40//40 39//39
f 40//40 42//42 41//41
f 42//42 44//44 43//43
f 44//44 46//46 45//45
f 46//46 48//48 47//47
f 48//48 50//50 49//49
f 50//50 52//52 51//51
f 52//52 54//54 53//53
f 54//54 56//56 55//55
f 56//56 58//58 57//57
f 58//58 60//60 59//59
f 60//60 62//62 61//61
f 6//6 4//4 62//62
f 4//4 2//2 62//62
f 2//2 64//64 62//62
f 62//62 60//60 58//58
f 58//58 56//56 54//54
f 54//54 52//52 50//50
f 50//50 48//48 54//54
f 48//48 46//46 54//54
f 46//46 44//44 42//42
f 42//42 40//40 38//38
f 38//38 36//36 30//30
f 36//36 34//34 30//30
f 34//34 32//32 30//30
f 30//30 28//28 26//26
f 26//26 24//24 22//22
f 22//22 20//20 18//18
f 18//18 16//16 22//22
f 16//16 14//14 22//22
f 14//14 12//12 10//10
f 10//10 8//8 6//6
f 62//62 58//58 54//54
f 46//46 42//42 38//38
f 30//30 26//26 22//22
f 14//14 10//10 6//6
f 6//6 62//62 54//54
f 54//54 46//46 38//38
f 38//38 30//30 22//22
f 22//22 14//14 6//6
f 6//6 54//54 38//38
f 62//62 64//64 63//63
f 64//64 2//2 1//1
f 63//63 1//1 3//3
f 3//3 5//5 7//7
f 7//7 9//9 15//15
f 9//9 11//11 15//15
f 11//11 13//13 15//15
f 15//15 17//17 19//19
f 19//19 21//21 23//23
f 23//23 25//25 31//31
f 25//25 27//27 31//31
f 27//27 29//29 31//31
f 31//31 33//33 35//35
f 35//35 37//37 39//39
f 39//39 41//41 47//47
f 41//41 43//43 47//47
f 43//43 45//45 47//47
f 47//47 49//49 51//51
f 51//51 53//53 55//55
f 55//55 57//57 63//63
f 57//57 59//59 63//63
f 59//59 61//61 63//63
f 63//63 3//3 15//15
f 3//3 7//7 15//15
f 15//15 19//19 31//31
f 19//19 23//23 31//31
f 31//31 35//35 47//47
f 35//35 39//39 47//47
f 47//47 51//51 63//63
f 51//51 55//55 63//63
f 63//63 15//15 31//31
